<!DOCTYPE svg PUBLIC "-//W3C//DTD SVG 1.1//EN" "http://www.w3.org/Graphics/SVG/1.1/DTD/svg11.dtd">
<!-- Uploaded to: SVG Repo, www.svgrepo.com, Transformed by: SVG Repo Mixer Tools -->
<svg fill="#419daf" version="1.1" id="Capa_1" xmlns="http://www.w3.org/2000/svg" xmlns:xlink="http://www.w3.org/1999/xlink" width="86px" height="86px" viewBox="-12.41 -12.41 148.96 148.96" xml:space="preserve" stroke="#419daf">
<g id="SVGRepo_bgCarrier" stroke-width="0"/>
<g id="SVGRepo_tracerCarrier" stroke-linecap="round" stroke-linejoin="round" stroke="#922626" stroke-width="1.2413800000000001"> <g> <path d="M50.569,124.138h23.1c4.7,0,9-3.8,9-8.601V81.138c0-4.7,3.5-9,8.2-9h14.699c7.2,0,11.2-8.101,6.801-13.8l-44.101-55 c-3.5-4.5-10.2-4.4-13.6,0l-42.9,55c-4.4,5.699-0.4,13.8,6.8,13.8h14.8c4.7,0,8.3,4.2,8.3,9v34.399 C41.669,120.338,45.769,124.138,50.569,124.138z"/> </g> </g>
<g id="SVGRepo_iconCarrier"> <g> <path d="M50.569,124.138h23.1c4.7,0,9-3.8,9-8.601V81.138c0-4.7,3.5-9,8.2-9h14.699c7.2,0,11.2-8.101,6.801-13.8l-44.101-55 c-3.5-4.5-10.2-4.4-13.6,0l-42.9,55c-4.4,5.699-0.4,13.8,6.8,13.8h14.8c4.7,0,8.3,4.2,8.3,9v34.399 C41.669,120.338,45.769,124.138,50.569,124.138z"/> </g> </g>
</svg>